<svg width="1024" height="1024" viewBox="0 0 1024 1024" fill="none"
	xmlns="http://www.w3.org/2000/svg">
	<rect width="1024" height="1024" fill="#0C0C0D"/>
	<path d="M597.958 586.812C597.963 587.043 597.862 587.209 597.328 587.46C596.818 587.827 596.634 588.044 596.45 588.261C595.867 588.911 595.285 589.561 594.284 590.303C593.456 590.881 593.047 591.365 592.638 591.85C577.249 605.519 559.267 613.588 538.988 616.695C537.265 616.96 535.534 617.173 533.219 617.216C522.78 616.409 512.928 615.797 502.811 615.072C492.028 612.548 481.831 609.265 472.335 604.016C471.691 603.66 470.735 603.868 469.924 603.813C458.227 597.51 448.424 588.937 439.959 578.359C439.369 577.329 438.765 576.72 438.162 576.11C438.162 576.11 438.221 576.109 438.2 575.869C437.426 574.779 436.672 573.929 435.918 573.08C435.918 573.08 435.977 573.079 435.954 572.854C435.398 572.033 434.865 571.438 434.333 570.843C434.333 570.843 434.426 570.842 434.386 570.658C434.014 570.196 433.683 569.916 433.351 569.637C433.351 569.637 433.404 569.596 433.371 569.416C433.17 569.008 433.002 568.78 432.834 568.552C432.834 568.552 432.936 568.567 432.913 568.335C431.372 565.75 429.855 563.398 428.338 561.046C428.338 561.046 428.413 561.049 428.421 560.794C426.628 556.058 424.553 551.664 423.089 547.076C420.908 540.235 419.157 533.256 417.226 525.994C416.976 519.306 416.753 512.957 416.452 506.612C416.383 505.147 416.048 503.695 415.835 502.237C417.112 484.495 422.783 468.203 432.252 453.228C434.846 449.126 437.938 445.338 441.163 441.337C441.689 440.952 441.852 440.635 442.014 440.319C442.014 440.091 442.103 439.908 442.686 439.67C443.412 439.039 443.736 438.507 444.06 437.974C444.06 437.974 444.073 438.043 444.215 437.945C444.481 437.614 444.605 437.382 444.729 437.15C444.797 437.259 444.864 437.369 445.077 437.296C445.757 436.372 446.292 435.63 446.827 434.889C446.827 434.889 446.84 434.75 447.059 434.714C447.476 434.565 447.569 434.394 447.557 434.167C447.557 434.167 447.568 434.002 447.806 433.959C448.251 433.803 448.357 433.628 448.362 433.392C448.362 433.392 448.371 433.288 448.661 433.278C449.326 432.817 449.702 432.364 450.077 431.912C450.077 431.912 450.091 431.981 450.249 431.904C450.586 431.62 450.766 431.413 450.946 431.207C450.946 431.207 450.951 431.33 451.079 431.231C451.392 430.919 451.577 430.706 451.762 430.493C451.762 430.493 451.769 430.645 451.879 430.529C452.174 430.193 452.358 429.972 452.543 429.751C452.558 429.511 452.675 429.342 453.312 429.171C454.55 428.291 455.369 427.481 456.188 426.671C456.188 426.671 456.203 426.786 456.34 426.706C456.678 426.433 456.88 426.24 457.082 426.048C457.082 426.048 457.072 426.131 457.237 426.079C457.623 425.71 457.842 425.394 458.062 425.077C458.062 425.077 458.11 424.9 458.431 424.916C459.186 424.543 459.62 424.155 460.054 423.766C460.054 423.766 460.054 423.841 460.291 423.819C462.625 422.283 464.722 420.769 466.818 419.255C466.818 419.255 466.82 419.316 467.056 419.298C468.405 418.535 469.518 417.79 470.631 417.045C470.631 417.045 470.623 417.105 470.883 417.101C472.318 416.703 473.512 416.357 474.666 415.908C481.414 413.278 488.005 410.124 494.926 408.086C507.511 404.381 520.446 403.305 533.526 404.994C539.213 405.728 544.889 406.546 550.569 407.326C550.569 407.326 550.499 407.335 550.641 407.464C551.44 407.561 552.095 407.529 552.751 407.496C569.706 412.297 584.245 421.25 597.031 433.634C597.458 434.229 597.864 434.441 598.269 434.653C598.269 434.653 598.447 434.679 598.45 434.998C598.899 435.619 599.347 435.919 599.794 436.22C599.794 436.22 599.899 436.234 599.945 436.446C600.114 436.865 600.296 436.969 600.537 436.971C600.537 436.971 600.658 436.982 600.657 437.305C601.806 438.822 602.957 440.015 604.107 441.208C604.361 441.218 604.543 441.338 604.723 441.99C605.57 443.265 606.345 444.117 607.12 444.969C607.12 444.969 606.99 444.985 607.098 445.091C607.4 445.389 607.595 445.581 607.789 445.772C607.789 445.772 607.729 445.758 607.745 445.993C608.289 446.805 608.817 447.383 609.345 447.961C609.345 447.961 609.283 447.962 609.307 448.204C610.85 450.547 612.369 452.647 613.888 454.747C613.888 454.747 613.812 454.745 613.837 454.943C614.103 455.537 614.342 455.934 614.582 456.33C614.582 456.33 614.5 456.311 614.544 456.501C614.842 457.072 615.097 457.452 615.351 457.833C615.351 457.833 615.232 457.831 615.354 457.934C615.683 458.209 615.89 458.382 616.096 458.555C616.096 458.555 616.022 458.542 616.071 458.737C616.388 459.3 616.657 459.669 616.927 460.037C616.927 460.037 616.827 460.026 616.822 460.27C619.214 466.756 621.694 472.969 623.976 479.253C625.28 482.845 626.261 486.554 627.388 490.21C627.388 490.21 627.308 490.195 627.303 490.463C627.575 492.069 627.852 493.405 628.129 494.742C628.129 494.742 628.048 494.715 628.047 495.015C628.293 497.886 628.54 500.456 628.784 503.377C628.799 509.534 628.817 515.34 628.835 521.146C628.835 521.146 628.812 521.07 628.665 521.298C628.386 521.873 628.171 522.213 628.134 522.571C626.723 536.299 622.442 549.125 616.065 561.308C615.627 562.147 615.58 563.191 615.352 564.14C615.352 564.14 615.345 564.062 615.136 564.163C614.197 565.781 613.468 567.298 612.739 568.815C612.739 568.815 612.748 568.935 612.433 568.96C611.109 570.69 610.099 572.395 609.09 574.1C609.09 574.1 609.055 574.321 608.715 574.37C608.059 575.077 607.741 575.735 607.424 576.394C607.424 576.394 607.415 576.451 607.172 576.505C606.702 576.917 606.475 577.275 606.249 577.633C606.249 577.633 606.234 577.557 606.111 577.68C605.833 578.03 605.679 578.256 605.525 578.483C605.525 578.483 605.528 578.361 605.351 578.456C604.692 579.332 604.211 580.113 603.73 580.894C603.73 580.894 603.716 581.055 603.409 581.037C602.628 581.361 602.153 581.703 601.684 582.257C601.706 582.61 601.722 582.751 601.738 582.891C601.738 582.891 601.732 582.818 601.606 582.946C601.299 583.281 601.117 583.488 600.935 583.695C600.935 583.695 600.934 583.561 600.837 583.694C600.562 584.044 600.382 584.259 600.202 584.475C600.202 584.475 600.196 584.329 600.1 584.462C599.815 584.812 599.627 585.029 599.439 585.245C599.439 585.245 599.438 585.076 599.351 585.213C599.077 585.572 598.891 585.795 598.705 586.018C598.705 586.018 598.688 585.84 598.603 585.976C598.332 586.345 598.145 586.578 597.958 586.812Z" fill="#FFCC3C"/>
	<path d="M532.818 794.689C506.505 797.242 483.145 790.533 462.727 774.309C442.04 757.871 430.159 736.252 427.351 710.055C424.988 688.004 430.851 667.726 442.746 649.103C447.317 641.946 451.723 634.683 456.361 627.216C499.94 650.409 543.646 650.576 587.701 627.533C599.161 645.983 612.098 663.823 615.587 686.34C619.81 713.6 613.303 737.982 596.336 759.482C581.309 778.525 561.466 789.824 537.635 794.158C536.162 794.426 534.648 794.464 532.818 794.689Z" fill="#FF7D2D"/>
	<path d="M443.815 267.275C461.505 243.535 484.68 230.234 513.916 227.589C555.949 223.787 596.693 249.431 610.927 288.766C620.268 314.582 618.539 339.954 605.698 364.178C600.198 374.555 593.415 384.244 587.234 394.216C546.471 372.062 500.343 370.161 457.032 394.126C442.976 374.375 429.286 354.408 427.191 329.15C425.409 307.66 430.307 287.746 442.177 269.671C442.658 268.937 443.156 268.214 443.815 267.275Z" fill="#FF7D2D"/>
	<path d="M389.483 529.183C394.688 563.219 410.653 591.185 436.835 613.793C434.624 617.664 432.367 621.66 430.068 625.631C425.049 634.3 420.189 643.07 414.943 651.599C396.636 681.362 369.889 695.702 335.263 692.864C296.349 689.674 267.308 659.92 260.407 623.686C251.671 577.806 280.454 536.274 319.399 524.594C325.212 522.851 331.344 522.185 337.917 521.216C339.989 521.521 341.472 521.722 342.955 521.725C355.549 521.751 368.142 521.739 380.736 521.74C386.862 521.741 386.845 521.747 388.429 527.719C388.574 528.263 389.122 528.698 389.483 529.183Z" fill="#FF7D2D"/>
	<path d="M705.349 521.216C721.687 521.669 736.478 526.956 749.488 536.64C775.726 556.172 788.063 582.778 785.505 615.284C782.568 652.616 755.24 685.832 715.63 691.987C681.051 697.36 652.837 685.082 632.927 655.993C623.7 642.512 616.118 627.897 607.835 613.872C634.428 591.088 650.542 562.748 655.458 527.514C656.03 521.86 659.329 521.685 663.435 521.757C675.939 521.975 688.45 521.854 700.958 521.806C702.422 521.8 703.885 521.422 705.349 521.216Z" fill="#FF7D2D"/>
	<path d="M652.35 479.58C645.181 450.438 629.774 426.41 606.835 406.651C608.76 403.435 610.668 400.105 612.71 396.859C621.231 383.31 628.761 368.982 638.567 356.428C656.06 334.031 679.936 324.093 708.378 326.593C747.079 329.995 778.393 359.433 784.681 397.671C790.747 434.553 772.566 470.322 738.171 488.439C737.567 488.399 737.396 488.512 737.298 488.754C737.298 488.754 737.305 488.685 737.053 488.69C735.208 489.503 733.614 490.31 732.02 491.117C732.02 491.117 732.037 490.997 731.79 490.994C728.685 492.022 725.827 493.054 722.969 494.086C722.969 494.086 722.982 493.993 722.722 493.981C721.366 494.288 720.271 494.607 719.175 494.926C719.175 494.926 719.193 494.778 718.923 494.755C711.797 495.207 704.947 495.958 698.084 496.095C686.671 496.324 675.249 496.158 663.831 496.16C655.884 496.161 656.029 496.141 654.914 488.298C654.493 485.331 653.23 482.482 652.35 479.58Z" fill="#FF7D2D"/>
	<path d="M322.659 494.511C310.389 491.687 299.56 485.974 289.619 477.578C289.111 477.035 288.859 476.883 288.608 476.73C288.608 476.73 288.77 476.742 288.655 476.633C288.288 476.399 288.037 476.276 287.785 476.152C287.785 476.152 287.858 476.161 287.821 475.942C287.294 475.441 286.804 475.157 286.314 474.874C286.314 474.874 286.173 474.856 286.14 474.568C285.768 474.041 285.428 473.803 285.089 473.564C284.419 472.978 283.749 472.391 282.937 471.383C282.453 470.749 282.112 470.536 281.77 470.323C281.77 470.323 281.634 470.3 281.618 470.075C281.49 469.636 281.317 469.553 281.081 469.601C281.081 469.601 280.918 469.571 280.885 469.316C280.736 468.824 280.547 468.715 280.285 468.731C280.285 468.731 280.238 468.715 280.247 468.435C279.59 467.461 278.924 466.766 278.259 466.071C278.259 466.071 278.339 466.072 278.318 465.851C277.298 464.514 276.299 463.399 275.301 462.283C275.301 462.283 275.368 462.285 275.321 462.088C274.936 461.606 274.599 461.322 274.261 461.037C274.261 461.037 274.359 460.991 274.328 460.832C274.116 460.458 273.935 460.244 273.753 460.029C273.753 460.029 273.841 460.04 273.821 459.828C273.284 459.008 272.768 458.4 272.251 457.791C272.251 457.791 272.33 457.791 272.295 457.594C271.933 457.091 271.605 456.785 271.277 456.479C271.277 456.479 271.386 456.436 271.36 456.286C271.168 455.917 271.003 455.698 270.838 455.479C270.838 455.479 270.896 455.488 270.854 455.285C270.538 454.719 270.264 454.357 269.99 453.994C269.99 453.994 270.092 454.002 270.058 453.813C269.732 453.263 269.44 452.903 269.148 452.542C269.148 452.542 269.254 452.552 269.281 452.31C269.126 451.351 269.058 450.581 268.747 449.927C264.144 440.245 261.327 430.165 260.26 419.394C258.625 402.896 261.745 387.54 269.109 372.873C269.732 371.632 269.894 370.157 270.27 368.79C284.989 344.119 306.141 329.094 334.95 326.594C368.595 323.674 394.196 337.777 412.285 365.922C420.852 379.25 428.641 393.084 436.835 406.777C417.645 423.032 403.99 442.899 394.975 466.626C394.077 467.937 393.268 468.822 393.021 469.844C391.258 477.127 389.209 484.377 388.092 491.767C387.526 495.51 386.105 496.227 382.858 496.188C372.274 496.062 361.68 496.399 351.105 496.06C342.441 495.782 333.801 494.776 325.146 494.142C324.33 494.082 323.489 494.379 322.659 494.511Z" fill="#FF7D2D"/>
</svg>
